<?xml version="1.0" encoding="UTF-8"?>
<!DOCTYPE svg PUBLIC "-//W3C//DTD SVG 1.1//EN" "http://www.w3.org/Graphics/SVG/1.1/DTD/svg11.dtd">
<svg xmlns="http://www.w3.org/2000/svg" style="background-color: rgb(255, 255, 255);" xmlns:xlink="http://www.w3.org/1999/xlink" version="1.1" width="121px" height="121px" viewBox="-0.5 -0.5 121 121"><defs/><g><path d="M 17.31 25.8 C 21.89 22.83 27.13 20.92 32.62 20.21 C 34.14 20.23 35.59 20.8 36.68 21.8 C 39.75 24.65 43.42 26.83 47.45 28.2 C 55.9 29.16 64.45 29.16 72.91 28.2 C 76.92 26.49 80.57 24.09 83.67 21.12 C 84.72 20.34 86.07 20 87.38 20.21 C 93.13 20.85 98.62 22.81 103.4 25.92 C 112.08 42.62 117.51 60.69 119.43 79.25 C 120 84.43 119.52 89.67 117.99 94.67 C 117.01 96.78 115.11 98.39 112.8 99.06 C 110.48 99.74 107.97 99.43 105.91 98.21 C 97.96 93.49 90.62 87.89 84.03 81.53 C 80.62 79.38 76.73 78.01 72.67 77.54 C 64.32 76.94 55.92 76.94 47.56 77.54 C 43.16 77.92 38.98 79.6 35.61 82.33 C 29.13 88.18 22.17 93.53 14.8 98.32 C 12.62 99.69 9.89 100.01 7.43 99.18 C 4.97 98.35 3.05 96.47 2.25 94.1 C 0.13 86.67 0 78.85 1.89 71.37 C 4.77 55.56 9.96 40.23 17.31 25.8 Z M 18.63 51.84 C 19 59.64 25.64 65.83 33.81 66 C 41.94 65.77 48.51 59.6 48.88 51.84 C 48.88 43.82 42.21 37.24 33.81 36.99 C 25.37 37.18 18.63 43.77 18.63 51.84 Z M 25.21 50.7 C 25.4 46.33 29.24 42.92 33.81 43.05 C 38.3 43.04 41.99 46.42 42.18 50.7 C 42.35 52.92 41.54 55.1 39.95 56.72 C 38.37 58.35 36.14 59.27 33.81 59.26 C 31.45 59.33 29.16 58.44 27.52 56.81 C 25.87 55.18 25.03 52.96 25.21 50.7 Z M 75.66 54.92 C 78.39 55.08 80.8 53.26 81.28 50.7 C 81.28 49.29 80.69 47.95 79.62 46.98 C 78.56 46.01 77.13 45.5 75.66 45.56 C 73.07 46.01 71.2 48.18 71.24 50.7 C 71.62 52.86 73.39 54.56 75.66 54.92 Z M 82.12 60.98 C 82.65 63.2 84.64 64.83 87.02 64.97 C 89.4 64.83 91.4 63.2 91.93 60.98 C 91.94 58.31 89.81 56.07 87.02 55.84 C 84.24 56.07 82.11 58.31 82.12 60.98 Z M 87.02 44.99 C 89.59 44.78 91.65 42.87 91.93 40.42 C 91.76 37.88 89.67 35.84 87.02 35.62 C 84.32 35.79 82.18 37.84 82 40.42 C 82.29 42.91 84.41 44.84 87.02 44.99 Z M 92.16 50.7 C 92.61 53.05 94.69 54.8 97.19 54.92 C 99.69 54.8 101.77 53.05 102.21 50.7 C 102.21 47.99 100.02 45.74 97.19 45.56 C 94.36 45.74 92.16 47.99 92.16 50.7 Z" fill="#e51400" stroke="none" pointer-events="none"/></g></svg>